<svg width="32" height="40" viewBox="0 0 32 40" fill="none" xmlns="http://www.w3.org/2000/svg">
<path fill-rule="evenodd" clip-rule="evenodd" d="M16.9356 15.0188C15.9417 15.0188 15.1342 14.52 15.1342 12.6871V5.54354C15.1342 3.70589 15.9417 3.52942 16.9356 3.52942C17.9294 3.52942 18.7351 3.70589 18.7351 5.54354V12.6871C18.7351 14.52 17.9294 15.0188 16.9356 15.0188Z" fill="black"/>
<path fill-rule="evenodd" clip-rule="evenodd" d="M20.7059 12.7953L20.8151 14.2424C20.8151 17.0376 19.0796 17.7647 16.9393 17.7647C14.7953 17.7647 13.056 17.0376 13.056 14.2424V12.9412L5.73557 12.7953C5.23925 12.789 4.74691 12.9064 4.28726 13.1405C3.82762 13.3746 3.40986 13.7207 3.05837 14.1588C2.70688 14.5968 2.4287 15.118 2.24004 15.6918C2.05139 16.2657 1.95604 16.8808 1.95957 17.5012V33.9718C1.95957 36.6353 3.64615 38.6588 5.73557 38.6588H28.1506C30.2306 38.6588 31.921 36.4988 31.921 33.8353V17.7647C31.921 15.1035 30.2325 12.9412 28.1506 12.9412L20.7059 12.7953ZM12.2353 19.8541C13.792 19.8541 15.0589 21.4729 15.0589 23.4682C15.0589 25.4588 13.792 29.2659 12.2353 29.2659C10.6749 29.2659 9.4118 25.4541 9.4118 23.4682C9.4118 21.4729 10.6767 19.8541 12.2353 19.8541ZM18.7916 33.9718H5.65086C5.65086 33.9718 5.42498 29.2965 8.79815 29.2965C9.50027 30.6447 10.4678 31.9459 12.2504 31.9459C14.0367 31.9459 14.8838 30.6353 15.5822 29.2659C19.3789 29.2659 18.7916 33.9718 18.7916 33.9718ZM28.2353 33.8729H20.7059V31.52H28.2353V33.8729ZM28.2353 29.1576H20.7059V26.8047H28.2353V29.1576ZM28.2353 24.4612H20.7059V22.1082H28.2353V24.4612Z" fill="black"/>
</svg>
