<svg width="50" height="45" viewBox="0 0 50 45" fill="none" xmlns="http://www.w3.org/2000/svg">
<path d="M41.7188 45H8.28125C5.4375 45 3.125 42.9188 3.125 40.3594V18.7031C3.125 16.1438 5.4375 14.0625 8.28125 14.0625H41.7188C44.5625 14.0625 46.875 16.1438 46.875 18.7031V40.3313C46.875 42.8906 44.5625 44.9719 41.7188 44.9719V45ZM8.28125 16.875C7.15625 16.875 6.25 17.6906 6.25 18.7031V40.3313C6.25 41.3438 7.15625 42.1594 8.28125 42.1594H41.7188C42.8438 42.1594 43.75 41.3438 43.75 40.3313V18.7031C43.75 17.6906 42.8438 16.875 41.7188 16.875H8.28125Z" fill="black"/>
<path d="M39.1875 16.875H10.8125V12.7688C10.8125 5.7375 17.1875 0 25 0C32.8125 0 39.1875 5.7375 39.1875 12.7688V16.875ZM13.9375 14.0625H36.0625V12.7688C36.0625 7.28437 31.0938 2.8125 25 2.8125C18.9062 2.8125 13.9375 7.28437 13.9375 12.7688V14.0625Z" fill="black"/>
<path d="M37.5 32.3438C39.2259 32.3438 40.625 31.0846 40.625 29.5312C40.625 27.9779 39.2259 26.7188 37.5 26.7188C35.7741 26.7188 34.375 27.9779 34.375 29.5312C34.375 31.0846 35.7741 32.3438 37.5 32.3438Z" fill="black"/>
<path d="M25 32.3438C26.7259 32.3438 28.125 31.0846 28.125 29.5312C28.125 27.9779 26.7259 26.7188 25 26.7188C23.2741 26.7188 21.875 27.9779 21.875 29.5312C21.875 31.0846 23.2741 32.3438 25 32.3438Z" fill="black"/>
<path d="M12.5 32.3438C14.2259 32.3438 15.625 31.0846 15.625 29.5312C15.625 27.9779 14.2259 26.7188 12.5 26.7188C10.7741 26.7188 9.375 27.9779 9.375 29.5312C9.375 31.0846 10.7741 32.3438 12.5 32.3438Z" fill="black"/>
</svg>
